<svg width="688" height="550" viewBox="0 0 688 550" fill="none" xmlns="http://www.w3.org/2000/svg">
<path d="M633.188 234.937C629.597 264.988 622.315 294.482 611.507 322.752C598.77 353.802 582.356 383.212 562.616 410.354C538.229 442.758 510.022 472.103 478.607 497.752C448.962 521.448 417.09 541.752 382.56 557.645C313.94 587.826 239.806 602.817 166.562 617.044L166.407 617.083C164.827 617.399 163.191 617.298 161.662 616.791C160.132 616.284 158.76 615.388 157.682 614.19C156.603 612.993 155.855 611.535 155.509 609.961C155.164 608.387 155.235 606.75 155.713 605.211C159.338 593.586 163.341 582.082 167.723 570.701C167.969 570.144 168.158 569.583 168.392 569.02C172.549 558.807 176.983 548.714 181.695 538.741C182.536 536.98 183.377 535.219 184.244 533.452C189.563 522.489 195.261 511.709 201.338 501.111C202.45 499.117 203.586 497.145 204.759 495.172C207.088 491.231 209.438 487.304 211.885 483.397C214.332 479.491 216.727 475.634 219.242 471.812C224.526 463.654 230.097 455.689 235.821 447.824C257.783 418.285 282.528 390.923 309.718 366.112C316.983 359.489 324.423 353.062 332.038 346.834C356.547 327.173 382.69 309.641 410.181 294.428C418.369 289.941 426.625 285.657 435.017 281.586C440.388 278.989 444.856 271.779 446.264 266.217C447.79 260.141 446.844 252.109 443.221 246.812C439.598 241.516 434.304 236.869 427.851 235.557L421.928 234.9C421.385 234.831 420.837 234.812 420.291 234.844C416.102 235.072 412.037 236.352 408.474 238.566C378.782 252.994 350.466 270.095 323.876 289.659C295.768 310.258 269.49 333.245 245.336 358.364C221.406 383.508 199.641 410.627 180.272 439.432C161.771 466.767 145.682 495.658 132.184 525.779C127.71 535.796 123.49 545.939 119.524 556.208C116.251 564.704 103.88 563.889 101.807 555.022C100.114 547.655 98.6331 540.24 97.363 532.779C92.6425 501.102 91.8669 468.962 95.0539 437.094C98.7481 406.7 106.158 376.874 117.118 348.285C128.736 319.789 143.696 292.772 161.682 267.802C179.909 243.452 200.955 221.345 224.379 201.942C256.211 176.734 291.947 157.32 328.779 140.482C371.396 121.456 415.322 105.448 457.862 86.3314C499.88 67.4746 541.067 46.2595 577.035 17.1883C581.842 13.3092 586.546 9.33683 591.147 5.27112C592.337 4.22523 593.773 3.50064 595.321 3.16615C596.869 2.83165 598.477 2.89836 599.992 3.35993C601.507 3.82151 602.879 4.66263 603.977 5.80344C605.076 6.94426 605.864 8.34691 606.268 9.87821C615.024 43.0024 622.843 76.3068 628.399 110.162C634.685 151.443 637.273 193.332 633.188 234.937Z" fill="#C2F970"/>
</svg>
