<svg width="179" height="169" viewBox="0 0 179 169" fill="none" xmlns="http://www.w3.org/2000/svg">
<path d="M122.071 132.086C119.482 131.074 116.886 130.079 114.296 129.068C101.429 124.046 88.1015 121.19 74.2944 120.653C68.5483 120.43 63.034 119.419 57.7172 117.076C50.3584 113.827 42.7841 111.134 34.9382 109.236C31.7622 108.69 28.6008 108.014 25.4049 107.627C19.6654 106.934 13.9058 106.412 8.15359 105.824C7.2216 105.729 6.64184 106.035 6.55711 107.091C6.40817 108.939 6.20942 110.78 5.97659 112.617C5.87629 113.369 6.11411 113.777 6.73805 114.251C7.36198 114.726 7.94502 115.486 8.14353 116.229C8.46501 117.51 8.63071 118.824 8.63703 120.144C8.70973 124.023 8.47174 127.921 8.74815 131.783C9.29048 139.346 12.8256 145.106 19.9939 148.052C23.0623 149.289 26.2663 150.159 29.5391 150.644C38.2156 151.964 45.3942 149.168 50.6784 142.036C52.3296 139.808 53.7196 137.388 55.2898 135.097C56.4827 133.354 57.5996 131.511 59.0577 130.011C61.4868 127.513 64.8019 128.327 66.0061 131.604C66.4559 132.834 66.6912 134.163 66.8682 135.467C67.3268 138.833 67.5676 142.232 68.1342 145.579C69.3789 152.867 73.1216 158.421 79.9065 161.691C83.3426 163.331 87.0273 164.389 90.8101 164.821C98.6207 165.762 105.026 163.359 109.493 156.679C110.787 154.743 111.851 152.645 112.919 150.57C114.21 148.06 115.325 145.46 116.649 142.97C117.402 141.552 118.452 140.359 120.299 140.245C120.636 140.223 121.079 139.712 121.231 139.331C121.887 137.692 122.441 136.013 123.054 134.357C123.597 132.891 123.512 132.649 122.071 132.086ZM8.0066 110.25C10.0512 109.355 12.4886 109.887 14.2314 111.667C11.8089 112.314 9.80473 111.814 8.0066 110.25ZM47.6431 141.045C43.0857 146.368 37.1966 148.458 30.347 147.565C27.4475 147.187 24.5487 146.392 21.7937 145.39C16.6563 143.523 13.5753 139.691 12.6074 134.331C11.4911 128.151 12.3379 122.099 14.4472 116.244C15.5217 113.257 17.9099 111.666 21.0197 111.148C24.6125 110.549 28.1414 111.18 31.6598 111.811C32.7882 112.013 33.8989 112.319 35.0173 112.577C40.0194 113.858 45.0727 115.054 49.6216 117.593C51.2995 118.542 52.7966 119.781 54.044 121.251C54.7417 122.072 55.1049 123.602 54.9198 124.69C53.8526 130.714 51.6802 136.322 47.6431 141.045ZM106.116 155.491C102.8 160.159 98.2412 162.263 92.5211 161.804C87.1376 161.374 82.0641 159.978 77.7812 156.555C72.4251 152.275 70.5204 146.365 70.5613 139.782C70.5756 136.671 71.0354 133.542 71.5367 130.462C72.1182 126.85 73.7307 125.393 77.3567 124.785C81.0661 124.163 84.7511 124.625 88.4192 125.172C90.6877 125.511 92.9361 125.989 95.1931 126.403C95.2181 126.336 95.1679 126.472 95.1931 126.403C99.7857 127.442 101.892 128.198 105.409 129.618C106.374 130.014 107.298 130.572 108.179 131.15C111.143 133.095 112.617 135.889 112.104 139.387C111.262 145.159 109.541 150.668 106.116 155.491ZM114.302 134.782C115.364 134.366 116.526 134.277 117.639 134.527C118.752 134.778 119.764 135.356 120.545 136.187C118.191 136.871 116.21 136.363 114.302 134.782Z" fill="#564D80"/>
<path d="M161.324 44.5133C160.641 50.23 159.256 55.8407 157.2 61.2184C154.777 67.1251 151.655 72.72 147.9 77.8832C143.26 84.0475 137.894 89.6297 131.918 94.509C126.279 99.0167 120.216 102.879 113.647 105.903C100.593 111.644 86.4908 114.496 72.5574 117.202L72.5279 117.21C72.2273 117.27 71.9162 117.251 71.6252 117.154C71.3342 117.058 71.0733 116.887 70.8681 116.659C70.6629 116.432 70.5205 116.154 70.4548 115.855C70.3892 115.555 70.4025 115.244 70.4936 114.951C71.1831 112.74 71.9447 110.551 72.7783 108.386C72.825 108.28 72.8609 108.174 72.9055 108.066C73.6963 106.124 74.5398 104.204 75.4362 102.306C75.5961 101.972 75.7561 101.637 75.921 101.3C76.9329 99.2148 78.0168 97.1641 79.1728 95.1481C79.3844 94.7688 79.6006 94.3935 79.8237 94.0183C80.2666 93.2686 80.7137 92.5215 81.1792 91.7783C81.6448 91.0352 82.1004 90.3016 82.5787 89.5745C83.5839 88.0225 84.6438 86.5074 85.7327 85.0112C89.9105 79.392 94.6178 74.1868 99.7901 69.467C101.172 68.207 102.587 66.9845 104.036 65.7996C108.699 62.0596 113.672 58.7244 118.902 55.8304C120.459 54.9769 122.03 54.1618 123.626 53.3874C124.648 52.8934 125.498 51.5218 125.766 50.4638C126.056 49.3078 125.876 47.7799 125.187 46.7724C124.498 45.7649 123.491 44.8808 122.263 44.6313L121.136 44.5063C121.033 44.4931 120.929 44.4895 120.825 44.4956C120.028 44.539 119.255 44.7825 118.577 45.2036C112.928 47.9483 107.542 51.2016 102.483 54.9232C97.1364 58.8418 92.1376 63.2146 87.5426 67.993C82.9904 72.7762 78.85 77.9352 75.1655 83.4148C71.646 88.6147 68.5853 94.1107 66.0177 99.8406C65.1665 101.746 64.3637 103.676 63.6093 105.629C62.9865 107.246 60.6332 107.09 60.2389 105.404C59.917 104.002 59.6352 102.592 59.3936 101.172C58.4956 95.1463 58.348 89.0323 58.9543 82.97C59.657 77.1881 61.0666 71.5143 63.1515 66.0757C65.3618 60.6549 68.2075 55.5155 71.6291 50.7653C75.0964 46.1331 79.1 41.9276 83.5561 38.2366C89.6115 33.4413 96.4095 29.7481 103.416 26.5449C111.523 22.9256 119.879 19.8803 127.972 16.2438C135.965 12.6566 143.8 8.62088 150.642 3.0906C151.557 2.35268 152.452 1.59701 153.327 0.82358C153.553 0.624617 153.827 0.486777 154.121 0.423146C154.415 0.359515 154.721 0.372205 155.01 0.460011C155.298 0.547818 155.559 0.707825 155.768 0.924844C155.977 1.14186 156.127 1.40869 156.203 1.69999C157.869 8.00127 159.357 14.3368 160.414 20.7771C161.609 28.6301 162.102 36.5988 161.324 44.5133Z" fill="#C2F970"/>
</svg>
