<svg xmlns="http://www.w3.org/2000/svg" viewBox="0 0 1080 1080"><defs><style>.cls-1{fill:#c2f970;}</style></defs><g id="just-glasses"><path class="cls-1" d="M1000.89,515.64c-20.42-5-40.87-9.86-61.29-14.85C838.14,476,735.4,467.91,631.38,477.68c-43.29,4.07-85.63,2-127.82-10.25-58.4-17-117.86-29.62-178.56-36-24.35-.92-48.72-2.83-73.06-2.54-43.71.54-87.4,2.38-131.1,3.72-7.08.22-11.12,3.09-10.7,11.09.73,14,1.08,28,1.17,42,0,5.74,2.19,8.56,7.34,11.49s10.28,8.05,12.51,13.42a124,124,0,0,1,7.61,28.85c4.42,29,6.53,58.45,12.46,87.12,11.62,56.14,43.87,95.78,100.54,110.7a317.11,317.11,0,0,0,74.13,9.89c66.35,1.23,117.36-26.9,149.84-85.63,10.15-18.35,18.15-37.88,27.63-56.62,7.2-14.25,13.73-29.18,23.16-41.88,15.71-21.15,41.37-18.36,53.67,5,4.6,8.77,7.69,18.49,10.32,28.09,6.8,24.77,12,50,19.59,74.52,16.61,53.38,50.21,91.27,104.33,109a259.92,259.92,0,0,0,84.85,12.57c59.48-.75,105.09-25.16,131.89-79.69,7.77-15.8,13.65-32.59,19.58-49.21,7.17-20.1,12.93-40.7,20.36-60.69,4.23-11.38,10.91-21.37,24.64-24.07,2.5-.5,5.31-4.77,6.07-7.78,3.28-12.94,5.75-26.08,8.69-39.1C1013.13,520.15,1012.25,518.42,1000.89,515.64ZM124.16,465.93c14.43-8.75,33.23-7.2,48.07,4.4C154.72,477.6,139.2,475.86,124.16,465.93ZM452,657.14c-28.84,44.45-70.89,66-123.12,66.15-22.11.06-44.63-3-66.28-7.76-40.37-8.86-67.29-34.5-79.9-73.71-14.54-45.2-14.24-91.41-4.28-137.4,5.07-23.46,21.38-37.77,44.17-44.76C248.92,451.58,276,452.79,303,454c8.66.39,17.29,1.57,25.93,2.39,38.77,4.6,77.84,8.52,114.47,23a123.89,123.89,0,0,1,36.8,23c6.05,5.46,10.3,16.56,10,24.9C488.22,573.51,477.54,617.71,452,657.14ZM904.69,707c-20.19,38.3-52.26,58.62-95.59,60.9-40.78,2.15-80.2-3.24-115.72-24.62-44.42-26.73-64.6-69.12-70.87-118.5-3-23.33-2.68-47.24-2-70.83.75-27.65,11.38-40.18,37.95-48.36,27.18-8.37,55.26-8.59,83.3-8.15,17.34.27,34.67,1.61,52,2.46.12-.53-.12.54,0,0,35.46,3.2,52,6.76,79.78,13.89,7.63,2,15.11,5.26,22.29,8.71,24.16,11.62,38,31.09,37.65,57.82C932.93,624.42,925.54,667.43,904.69,707Zm40.66-163.39a43.16,43.16,0,0,1,48.2,4.29C976.59,555.38,961.23,553.55,945.35,543.61Z"/></g></svg>