<svg width="673" height="626" viewBox="0 0 673 626" fill="none" xmlns="http://www.w3.org/2000/svg">
<g opacity="0.65">
<path d="M528.66 488.197C517.777 481.435 506.851 474.748 495.966 467.991C441.883 434.422 383.898 410.285 321.789 396.252C295.941 390.414 271.805 381.199 249.683 366.116C219.071 345.211 187.014 326.644 153.059 311.456C139.127 306.313 125.371 300.593 111.216 296.153C85.7923 288.191 60.1343 280.986 34.5652 273.489C30.4221 272.276 27.5384 273.174 26.2671 277.887C24.0396 286.136 21.5919 294.312 18.9936 302.44C17.9069 305.765 18.6417 307.813 21.0704 310.485C23.4991 313.158 25.5016 317.095 25.7768 320.628C26.1576 326.699 25.804 332.795 24.7235 338.781C21.7937 356.418 17.4407 373.878 15.4482 391.609C11.5514 426.331 22.7293 455.4 52.7336 474.772C65.5966 482.957 79.3829 489.59 93.8049 494.535C132.009 507.809 166.884 501.17 196.819 473.297C206.173 464.588 214.504 454.789 223.544 445.728C230.413 438.836 237.022 431.423 244.889 425.851C257.994 416.573 272.331 423.047 275.034 438.908C276.038 444.86 275.988 451.076 275.694 457.135C274.944 472.771 273.18 488.372 272.935 504.013C272.451 538.081 284.742 566.392 312.738 586.908C326.928 597.227 342.735 605.116 359.512 610.254C394.11 621.08 425.154 615.574 451.002 589.058C458.495 581.376 465.08 572.763 471.661 564.258C479.62 553.971 486.857 543.128 494.946 532.955C499.55 527.163 505.312 522.64 513.776 523.676C515.319 523.859 517.756 521.918 518.766 520.318C523.116 513.443 527.034 506.298 531.202 499.312C534.897 493.127 534.715 491.958 528.66 488.197ZM30.1804 293.42C40.1962 291.082 50.7937 295.54 57.1944 305.069C45.6745 305.966 37.0132 302.019 30.1804 293.42ZM183.899 466.254C158.777 486.544 130.337 491.067 100.052 481.266C87.2324 477.115 74.7659 471.078 63.1251 464.222C41.4161 451.447 30.6754 431.497 30.7936 406.395C30.9277 377.458 39.8499 350.746 54.3264 325.989C61.7049 313.359 73.8624 308.157 88.388 308.422C105.171 308.726 120.629 314.554 136.041 320.366C140.984 322.231 145.76 324.549 150.61 326.66C172.199 336.664 194.09 346.332 212.568 361.655C219.373 367.368 225.115 374.237 229.532 381.946C232.003 386.254 232.364 393.489 230.611 398.263C220.714 424.664 206.159 448.247 183.899 466.254ZM436.704 580.84C417.757 599.205 395.331 604.905 369.799 598.022C345.768 591.548 323.952 580.962 307.423 561.852C286.751 537.958 283.086 509.581 288.802 479.788C291.481 465.705 296.193 451.914 301.053 438.378C306.722 422.502 315.252 417.256 332.193 417.547C349.523 417.844 365.831 423.033 381.991 428.596C391.985 432.035 401.771 436.092 411.649 439.866C411.819 439.581 411.478 440.156 411.649 439.866C431.586 448.433 440.493 453.626 455.236 463.016C459.278 465.619 462.994 468.924 466.5 472.281C478.296 483.587 482.628 497.486 477.364 512.904C468.697 538.348 456.273 561.864 436.704 580.84ZM491.191 493.885C496.352 492.89 501.694 493.464 506.526 495.534C511.358 497.603 515.459 501.073 518.301 505.496C507.06 506.618 498.508 502.65 491.191 493.885Z" fill="#564D80"/>
</g>
</svg>
