<svg width="45" height="46" viewBox="0 0 45 46" fill="none" xmlns="http://www.w3.org/2000/svg">
<circle cx="22.4415" cy="23.1392" r="22.4415" fill="#564D80"/>
<path d="M39.3647 22.1471C38.5573 21.9494 37.7487 21.7573 36.9413 21.56C32.9295 20.5794 28.8672 20.2599 24.7546 20.6462C23.0425 20.8071 21.3684 20.7253 19.7002 20.2413C17.391 19.5691 15.0399 19.0697 12.6403 18.8179C11.6771 18.7815 10.7135 18.7056 9.75105 18.7174C8.02274 18.7384 6.29523 18.8115 4.56733 18.8641C4.28738 18.8728 4.12764 18.9863 4.14425 19.303C4.17311 19.8566 4.18695 20.4101 4.19051 20.9637C4.19051 21.1907 4.2771 21.3018 4.48073 21.4176C4.68436 21.5335 4.88721 21.7363 4.97538 21.9487C5.12111 22.3152 5.22227 22.6979 5.27668 23.0886C5.45105 24.2353 5.53448 25.4001 5.76895 26.5333C6.22841 28.7535 7.50358 30.3209 9.74433 30.9108C10.7025 31.1562 11.6864 31.2874 12.6754 31.3015C15.2989 31.3505 17.3159 30.2379 18.6001 27.9157C19.0015 27.1901 19.3178 26.4179 19.6926 25.6769C19.9773 25.1135 20.2355 24.5231 20.6084 24.021C21.23 23.1847 22.2442 23.295 22.7305 24.2187C22.9124 24.565 23.0346 24.9494 23.1386 25.3289C23.4074 26.3084 23.6131 27.306 23.9132 28.2755C24.5703 30.3861 25.8985 31.8843 28.0384 32.5854C29.1215 32.9354 30.2553 33.1032 31.3934 33.082C33.7452 33.0523 35.5487 32.0876 36.6083 29.9314C36.9156 29.3063 37.1481 28.6428 37.3829 27.9853C37.666 27.1909 37.8938 26.376 38.1876 25.5856C38.3548 25.1356 38.619 24.7406 39.1618 24.6338C39.2607 24.6145 39.3718 24.4452 39.4019 24.3262C39.5315 23.8146 39.6292 23.2954 39.7455 22.7802C39.8487 22.3255 39.8139 22.2583 39.3647 22.1471ZM4.6986 20.1816C5.26916 19.8356 6.01252 19.8969 6.5993 20.3556C5.90695 20.643 5.29328 20.5742 4.6986 20.1816ZM17.6595 27.7425C16.5191 29.5 14.8565 30.3521 12.7917 30.3577C11.9171 30.36 11.0266 30.2391 10.1706 30.0508C8.57433 29.7005 7.50991 28.6867 7.01131 27.1363C6.43639 25.3491 6.44825 23.522 6.84207 21.7035C7.04294 20.7759 7.68744 20.2105 8.58856 19.9341C9.63164 19.6142 10.7008 19.662 11.7688 19.7099C12.1112 19.7249 12.4524 19.7716 12.7941 19.804C14.3274 19.9863 15.8719 20.1409 17.3202 20.7134C17.8548 20.9289 18.3474 21.2367 18.7753 21.6228C19.0149 21.8391 19.1826 22.2776 19.1707 22.6074C19.094 24.4353 18.6697 26.1834 17.6595 27.7425ZM35.5609 29.7136C34.7626 31.228 33.4949 32.0318 31.7813 32.122C30.1688 32.2066 28.6105 31.9935 27.2057 31.1481C25.4493 30.0916 24.6514 28.4155 24.4035 26.4626C24.2848 25.5401 24.2975 24.5951 24.3244 23.6619C24.354 22.5686 24.7744 22.0736 25.8249 21.7502C26.8996 21.4188 28.0099 21.4101 29.1186 21.4275C29.8043 21.4382 30.4895 21.4912 31.1747 21.5252C32.5768 21.6513 33.2308 21.7921 34.3296 22.0744C34.6313 22.1535 34.9267 22.282 35.2106 22.4184C36.1659 22.8779 36.7131 23.6477 36.6993 24.705C36.6779 26.4495 36.3857 28.1497 35.5609 29.7136ZM37.1686 23.2531C37.4669 23.0876 37.8079 23.0154 38.1476 23.0457C38.4874 23.076 38.8102 23.2075 39.0745 23.4231C38.4043 23.7189 37.7965 23.6461 37.1686 23.2531Z" fill="#C2F970"/>
<path d="M37.0796 14.4423C36.8595 15.0187 36.5691 15.5656 36.2148 16.0706C35.809 16.6212 35.3383 17.121 34.8131 17.5593C34.1699 18.0789 33.4663 18.5189 32.7175 18.8697C32.0168 19.1937 31.2792 19.431 30.521 19.5762C29.0149 19.8317 27.4764 19.7601 25.9565 19.6771H25.9534C25.9207 19.6753 25.8891 19.6651 25.8615 19.6475C25.834 19.6299 25.8115 19.6054 25.7962 19.5765C25.7809 19.5476 25.7734 19.5152 25.7743 19.4826C25.7752 19.4499 25.7846 19.418 25.8015 19.39C25.9307 19.1791 26.067 18.9715 26.2104 18.7673C26.2179 18.7574 26.2242 18.7475 26.2317 18.7376C26.3635 18.5557 26.5012 18.3782 26.6449 18.205L26.7216 18.1133C26.8814 17.9232 27.0474 17.7387 27.2198 17.5597C27.2519 17.5257 27.2839 17.4925 27.3167 17.4593C27.3827 17.3928 27.4488 17.3268 27.5144 17.2616C27.58 17.1963 27.6488 17.1319 27.7172 17.069C27.8627 16.9342 28.0122 16.8041 28.164 16.6772C28.7447 16.2025 29.3696 15.7844 30.0299 15.4289C30.2068 15.3345 30.3859 15.2445 30.5673 15.1588C31.1494 14.8919 31.7533 14.6752 32.3723 14.5111C32.5568 14.4629 32.7413 14.4194 32.9259 14.3807C33.0445 14.3558 33.1694 14.2356 33.2248 14.1327C33.2892 14.0101 33.3024 13.8669 33.2616 13.7346C33.2207 13.6067 33.1318 13.4997 33.0137 13.436L32.9041 13.3929C32.8937 13.389 32.883 13.3859 32.8721 13.3839C32.7881 13.3675 32.7013 13.3726 32.6198 13.3989C31.9613 13.5367 31.3167 13.734 30.6938 13.9884C30.036 14.256 29.4024 14.5798 28.8002 14.9564C28.2023 15.3344 27.6373 15.7623 27.1115 16.2355C26.6099 16.684 26.1483 17.1754 25.7319 17.704C25.5935 17.8801 25.4596 18.0596 25.3302 18.2426C25.307 18.2756 25.2737 18.3004 25.2354 18.3131C25.1971 18.3259 25.1557 18.3261 25.1172 18.3136C25.0788 18.3012 25.0454 18.2767 25.0219 18.2438C24.9984 18.211 24.986 18.1715 24.9866 18.1311C24.9898 17.9774 24.9973 17.8234 25.0091 17.6692C25.0735 17.02 25.2179 16.3812 25.4389 15.7673C25.6629 15.1848 25.9575 14.6319 26.3163 14.1213C26.6875 13.615 27.1175 13.1547 27.5974 12.75C28.0785 12.3597 28.6043 12.0279 29.1636 11.7615C29.9184 11.4215 30.7211 11.2151 31.5329 11.0652C32.4696 10.9007 33.417 10.8027 34.3533 10.6362C35.2773 10.4721 36.1974 10.2574 37.0527 9.86122C37.1668 9.8085 37.2795 9.7534 37.3907 9.69594C37.4195 9.68088 37.4516 9.67346 37.484 9.67439C37.5164 9.67532 37.548 9.68457 37.5758 9.70125C37.6036 9.71793 37.6266 9.74148 37.6427 9.76963C37.6587 9.79778 37.6673 9.82959 37.6675 9.86201C37.6758 10.5603 37.6652 11.2582 37.6066 11.9545C37.524 12.7995 37.367 13.6405 37.0796 14.4423Z" fill="#C2F970"/>
</svg>
