<svg width="21" height="21" viewBox="0 0 21 21" fill="none" xmlns="http://www.w3.org/2000/svg">
<path d="M10.1999 0C8.18258 0 6.21053 0.598216 4.53316 1.719C2.85579 2.83978 1.54844 4.43279 0.776428 6.29659C0.00441947 8.16038 -0.197573 10.2112 0.195993 12.1898C0.58956 14.1684 1.56101 15.9859 2.9875 17.4124C4.41398 18.8389 6.23144 19.8103 8.21003 20.2039C10.1886 20.5974 12.2395 20.3955 14.1033 19.6234C15.9671 18.8514 17.5601 17.5441 18.6809 15.8667C19.8017 14.1893 20.3999 12.2173 20.3999 10.1999C20.3999 7.49474 19.3252 4.90035 17.4124 2.98749C15.4995 1.07463 12.9051 0 10.1999 0ZM16.7999 11.0799H11.0799V16.7999C11.0799 17.0333 10.9872 17.2572 10.8222 17.4222C10.6572 17.5872 10.4333 17.6799 10.1999 17.6799C9.96655 17.6799 9.74272 17.5872 9.57768 17.4222C9.41265 17.2572 9.31994 17.0333 9.31994 16.7999V11.0799H3.59994C3.36655 11.0799 3.14272 10.9872 2.97768 10.8222C2.81265 10.6572 2.71994 10.4333 2.71994 10.1999C2.71994 9.96654 2.81265 9.74271 2.97768 9.57768C3.14272 9.41265 3.36655 9.31993 3.59994 9.31993H9.31994V3.59993C9.31994 3.36654 9.41265 3.14271 9.57768 2.97768C9.74272 2.81265 9.96655 2.71993 10.1999 2.71993C10.4333 2.71993 10.6572 2.81265 10.8222 2.97768C10.9872 3.14271 11.0799 3.36654 11.0799 3.59993V9.31993H16.7999C17.0333 9.31993 17.2572 9.41265 17.4222 9.57768C17.5872 9.74271 17.6799 9.96654 17.6799 10.1999C17.6799 10.4333 17.5872 10.6572 17.4222 10.8222C17.2572 10.9872 17.0333 11.0799 16.7999 11.0799Z" fill="#44344F"/>
</svg>
