<svg width="22" height="22" viewBox="0 0 22 22" fill="none" xmlns="http://www.w3.org/2000/svg">
<path fill-rule="evenodd" clip-rule="evenodd" d="M7.99995 3.5C8.16291 3.50003 8.32143 3.55315 8.45152 3.6513C8.58161 3.74945 8.67619 3.8873 8.72095 4.044L9.53395 6.89C9.709 7.50292 10.0374 8.0611 10.4881 8.51183C10.9388 8.96255 11.497 9.29095 12.1099 9.466L14.9559 10.279C15.1125 10.3239 15.2503 10.4185 15.3483 10.5486C15.4464 10.6786 15.4994 10.8371 15.4994 11C15.4994 11.1629 15.4464 11.3214 15.3483 11.4514C15.2503 11.5815 15.1125 11.6761 14.9559 11.721L12.1099 12.534C11.497 12.7091 10.9388 13.0374 10.4881 13.4882C10.0374 13.9389 9.709 14.4971 9.53395 15.11L8.72095 17.956C8.67609 18.1126 8.58147 18.2503 8.45139 18.3484C8.32131 18.4464 8.16284 18.4995 7.99995 18.4995C7.83705 18.4995 7.67859 18.4464 7.54851 18.3484C7.41843 18.2503 7.32381 18.1126 7.27895 17.956L6.46595 15.11C6.2909 14.4971 5.9625 13.9389 5.51178 13.4882C5.06105 13.0374 4.50287 12.7091 3.88995 12.534L1.04395 11.721C0.887353 11.6761 0.749619 11.5815 0.65157 11.4514C0.553522 11.3214 0.500488 11.1629 0.500488 11C0.500488 10.8371 0.553522 10.6786 0.65157 10.5486C0.749619 10.4185 0.887353 10.3239 1.04395 10.279L3.88995 9.466C4.50287 9.29095 5.06105 8.96255 5.51178 8.51183C5.9625 8.0611 6.2909 7.50292 6.46595 6.89L7.27895 4.044C7.32371 3.8873 7.41829 3.74945 7.54838 3.6513C7.67847 3.55315 7.83698 3.50003 7.99995 3.5ZM16.9999 0.5C17.1673 0.499907 17.3298 0.555764 17.4617 0.658686C17.5936 0.761609 17.6873 0.905686 17.7279 1.068L17.9859 2.104C18.2219 3.044 18.9559 3.778 19.8959 4.014L20.9319 4.272C21.0946 4.31228 21.239 4.40586 21.3423 4.5378C21.4455 4.66974 21.5016 4.83246 21.5016 5C21.5016 5.16754 21.4455 5.33026 21.3423 5.4622C21.239 5.59414 21.0946 5.68772 20.9319 5.728L19.8959 5.986C18.9559 6.222 18.2219 6.956 17.9859 7.896L17.7279 8.932C17.6877 9.09463 17.5941 9.23908 17.4621 9.34233C17.3302 9.44558 17.1675 9.50168 16.9999 9.50168C16.8324 9.50168 16.6697 9.44558 16.5377 9.34233C16.4058 9.23908 16.3122 9.09463 16.2719 8.932L16.0139 7.896C15.8986 7.43443 15.6599 7.0129 15.3235 6.67648C14.987 6.34005 14.5655 6.10139 14.1039 5.986L13.0679 5.728C12.9053 5.68772 12.7609 5.59414 12.6576 5.4622C12.5544 5.33026 12.4983 5.16754 12.4983 5C12.4983 4.83246 12.5544 4.66974 12.6576 4.5378C12.7609 4.40586 12.9053 4.31228 13.0679 4.272L14.1039 4.014C14.5655 3.89861 14.987 3.65995 15.3235 3.32352C15.6599 2.9871 15.8986 2.56557 16.0139 2.104L16.2719 1.068C16.3125 0.905686 16.4063 0.761609 16.5382 0.658686C16.6701 0.555764 16.8326 0.499907 16.9999 0.5ZM15.4999 14C15.6575 13.9999 15.811 14.0494 15.9388 14.1415C16.0666 14.2336 16.1622 14.3636 16.2119 14.513L16.6059 15.696C16.7559 16.143 17.1059 16.495 17.5539 16.644L18.7369 17.039C18.8859 17.089 19.0154 17.1845 19.1071 17.3121C19.1989 17.4397 19.2482 17.5929 19.2482 17.75C19.2482 17.9071 19.1989 18.0603 19.1071 18.1879C19.0154 18.3155 18.8859 18.411 18.7369 18.461L17.5539 18.856C17.1069 19.006 16.7549 19.356 16.6059 19.804L16.2109 20.987C16.1609 21.136 16.0654 21.2655 15.9378 21.3572C15.8103 21.4489 15.6571 21.4983 15.4999 21.4983C15.3428 21.4983 15.1896 21.4489 15.0621 21.3572C14.9345 21.2655 14.839 21.136 14.7889 20.987L14.3939 19.804C14.3203 19.5833 14.1963 19.3827 14.0318 19.2182C13.8672 19.0537 13.6667 18.9297 13.4459 18.856L12.2629 18.461C12.114 18.411 11.9845 18.3155 11.8927 18.1879C11.801 18.0603 11.7516 17.9071 11.7516 17.75C11.7516 17.5929 11.801 17.4397 11.8927 17.3121C11.9845 17.1845 12.114 17.089 12.2629 17.039L13.4459 16.644C13.8929 16.494 14.2449 16.144 14.3939 15.696L14.7889 14.513C14.8387 14.3637 14.9341 14.2339 15.0617 14.1418C15.1893 14.0497 15.3426 14.0001 15.4999 14Z" fill="#7C3AED"/>
</svg>
