<svg width="57" height="57" viewBox="0 0 57 57" fill="none" xmlns="http://www.w3.org/2000/svg">
<path d="M22.5625 4.75C20.595 4.75 19 6.34498 19 8.3125V10.6875C19 12.655 20.595 14.25 22.5625 14.25H34.4375C36.4049 14.25 38 12.655 38 10.6875V8.3125C38 6.34498 36.4049 4.75 34.4375 4.75H22.5625Z" fill="#7C3AED"/>
<path fill-rule="evenodd" clip-rule="evenodd" d="M15.4375 9.58698C12.45 9.75458 10.564 10.2306 9.21186 11.5827C7.125 13.6696 7.125 17.0283 7.125 23.7459V37.996C7.125 44.7134 7.125 48.0721 9.21186 50.1591C11.2987 52.246 14.6575 52.246 21.375 52.246H35.625C42.3424 52.246 45.7012 52.246 47.7881 50.1591C49.875 48.0721 49.875 44.7134 49.875 37.996V23.7459C49.875 17.0283 49.875 13.6696 47.7881 11.5827C46.436 10.2306 44.55 9.75458 41.5625 9.58698V10.6875C41.5625 14.6225 38.3726 17.8125 34.4375 17.8125H22.5625C18.6275 17.8125 15.4375 14.6225 15.4375 10.6875V9.58698ZM16.625 23.1563C15.6413 23.1563 14.8438 23.9538 14.8438 24.9375C14.8438 25.9212 15.6413 26.7188 16.625 26.7188H17.8125C18.7962 26.7188 19.5938 25.9212 19.5938 24.9375C19.5938 23.9538 18.7962 23.1563 17.8125 23.1563H16.625ZM24.9375 23.1563C23.9538 23.1563 23.1562 23.9538 23.1562 24.9375C23.1562 25.9212 23.9538 26.7188 24.9375 26.7188H40.375C41.3587 26.7188 42.1562 25.9212 42.1562 24.9375C42.1562 23.9538 41.3587 23.1563 40.375 23.1563H24.9375ZM16.625 31.4688C15.6413 31.4688 14.8438 32.2663 14.8438 33.25C14.8438 34.2337 15.6413 35.0313 16.625 35.0313H17.8125C18.7962 35.0313 19.5938 34.2337 19.5938 33.25C19.5938 32.2663 18.7962 31.4688 17.8125 31.4688H16.625ZM24.9375 31.4688C23.9538 31.4688 23.1562 32.2663 23.1562 33.25C23.1562 34.2337 23.9538 35.0313 24.9375 35.0313H40.375C41.3587 35.0313 42.1562 34.2337 42.1562 33.25C42.1562 32.2663 41.3587 31.4688 40.375 31.4688H24.9375ZM16.625 39.7813C15.6413 39.7813 14.8438 40.5788 14.8438 41.5625C14.8438 42.5462 15.6413 43.3438 16.625 43.3438H17.8125C18.7962 43.3438 19.5938 42.5462 19.5938 41.5625C19.5938 40.5788 18.7962 39.7813 17.8125 39.7813H16.625ZM24.9375 39.7813C23.9538 39.7813 23.1562 40.5788 23.1562 41.5625C23.1562 42.5462 23.9538 43.3438 24.9375 43.3438H40.375C41.3587 43.3438 42.1562 42.5462 42.1562 41.5625C42.1562 40.5788 41.3587 39.7813 40.375 39.7813H24.9375Z" fill="#7C3AED"/>
</svg>
