<svg width="36" height="36" viewBox="0 0 36 36" fill="none" xmlns="http://www.w3.org/2000/svg">
<path d="M30 16.875C30.6213 16.875 31.125 17.3787 31.125 18C31.125 18.6213 30.6213 19.125 30 19.125H16.125V27C16.125 27.4551 15.8509 27.8652 15.4305 28.0393C15.0102 28.2135 14.5263 28.1173 14.2045 27.7956L5.20451 18.7956C4.99353 18.5845 4.875 18.2983 4.875 18C4.875 17.7016 4.99353 17.4154 5.20451 17.2045L14.2045 8.20453C14.5263 7.88278 15.0102 7.78654 15.4305 7.96066C15.8509 8.1348 16.125 8.54502 16.125 9.00003V16.875H30Z" fill="#7C3AED"/>
</svg>
