<svg xmlns="http://www.w3.org/2000/svg" viewBox="0 0 1080 1080"><defs><style>.cls-1{fill:#c2f970;}</style></defs><g id="just-leaf"><path class="cls-1" d="M870.3,501.53a414.13,414.13,0,0,1-47.72,89.84,472.12,472.12,0,0,1-77.34,82.15,567.27,567.27,0,0,1-115.59,72.3c-38.83,17.72-79.16,31.13-121.18,39-83.12,14.11-168.09,10.14-251.88,5.58h-.18A10.45,10.45,0,0,1,248,774.52q10.71-17.53,22.56-34.35c.42-.54.78-1.1,1.19-1.65q11-15,22.81-29.38c1.4-1.69,2.8-3.38,4.23-5.07Q312,688.32,326.3,673.48c1.76-1.87,3.54-3.71,5.36-5.54,3.62-3.66,7.26-7.3,11-10.89s7.41-7.14,11.2-10.62c8-7.45,16.26-14.61,24.66-21.62a647,647,0,0,1,103-68.87q14.61-7.85,29.63-14.91a620.9,620.9,0,0,1,99.6-35.74c10.16-2.65,20.34-5.06,30.61-7.2,6.57-1.36,13.42-8,16.48-13.68,3.33-6.21,4.5-15.23,2-22s-7-13.29-13.68-16.49l-6.28-2.34a9.94,9.94,0,0,0-1.77-.51,28.08,28.08,0,0,0-13.91.82,611.62,611.62,0,0,0-106.28,32.54,681.1,681.1,0,0,0-104.5,53.41,693.82,693.82,0,0,0-93.19,70.59,640.6,640.6,0,0,0-76.12,81q-11.44,14.55-22.15,29.72c-5.9,8.37-19.17,4.09-19-6.15q.26-12.75,1.25-25.48a435.85,435.85,0,0,1,23.71-105,420.92,420.92,0,0,1,48.41-90.82A437.46,437.46,0,0,1,347,408.13a433.46,433.46,0,0,1,86.44-54.65c41.63-18.77,85.93-30.15,130.72-38.42,51.7-9.07,104-14.49,155.64-23.68,51-9.05,101.74-20.9,148.94-42.75q9.46-4.37,18.66-9.13a10.45,10.45,0,0,1,15.23,9.17c.47,38.53-.13,77-3.35,115.45C894.82,410.87,886.16,457.27,870.3,501.53Z"/></g></svg>