<svg width="24" height="24" viewBox="0 0 24 24" fill="none" xmlns="http://www.w3.org/2000/svg">
<path d="M9.63024 0H1.9679C0.881061 0 0 0.882742 0 1.97166V10.0512C0 11.1402 0.881061 12.0229 1.9679 12.0229H9.63024C10.7171 12.0229 11.5981 11.1402 11.5981 10.0512V1.97166C11.5981 0.882742 10.7171 0 9.63024 0Z" fill="#7C3AED"/>
<path d="M22.1966 0H14.6151C13.6191 0 12.8116 0.808983 12.8116 1.80692V7.01799C12.8116 8.01592 13.6191 8.8249 14.6151 8.8249H22.1966C23.1926 8.8249 24 8.01592 24 7.01799V1.80692C24 0.808983 23.1926 0 22.1966 0Z" fill="#7C3AED"/>
<path d="M9.6918 13.2774H1.90635C0.853503 13.2774 0 14.1326 0 15.1874V22.09C0 23.1449 0.853503 24 1.90635 24H9.6918C10.7446 24 11.5981 23.1449 11.5981 22.09V15.1874C11.5981 14.1326 10.7446 13.2774 9.6918 13.2774Z" fill="#7C3AED"/>
<path d="M22.4454 10.0635H14.3663C13.5077 10.0635 12.8116 10.7609 12.8116 11.6211V22.4415C12.8116 23.3017 13.5077 23.9991 14.3663 23.9991H22.4454C23.304 23.9991 24 23.3017 24 22.4415V11.6211C24 10.7609 23.304 10.0635 22.4454 10.0635Z" fill="#7C3AED"/>
</svg>
