<svg width="939" height="1022" viewBox="0 0 939 1022" fill="none" xmlns="http://www.w3.org/2000/svg">
<g opacity="0.65">
<path d="M702.686 801.044C684.829 789.948 666.9 778.976 649.041 767.889C560.301 712.809 465.156 673.204 363.247 650.178C320.835 640.599 281.232 625.479 244.935 600.73C194.705 566.43 142.107 535.963 86.3913 511.043C63.5317 502.605 40.9606 493.219 17.7347 485.934C-23.9807 472.869 -66.0809 461.047 -108.035 448.746C-114.833 446.755 -119.565 448.228 -121.651 455.963C-125.306 469.497 -129.322 482.913 -133.585 496.249C-135.369 501.705 -134.163 505.066 -130.178 509.45C-126.193 513.835 -122.907 520.296 -122.455 526.093C-121.831 536.055 -122.411 546.056 -124.184 555.879C-128.991 584.818 -136.133 613.466 -139.403 642.56C-145.797 699.532 -127.456 747.229 -78.2241 779.015C-57.1183 792.445 -34.4975 803.33 -10.8336 811.443C51.852 833.223 109.077 822.33 158.193 776.595C173.542 762.306 187.212 746.227 202.045 731.359C213.315 720.05 224.16 707.888 237.069 698.745C258.571 683.522 282.095 694.144 286.53 720.17C288.178 729.935 288.096 740.134 287.614 750.076C286.383 775.733 283.488 801.33 283.086 826.995C282.293 882.893 302.46 929.346 348.395 963.011C371.68 979.942 397.616 992.886 425.143 1001.32C481.914 1019.08 532.85 1010.05 575.263 966.539C587.557 953.934 598.361 939.801 609.161 925.845C622.22 908.967 634.094 891.175 647.366 874.482C654.922 864.979 664.375 857.559 678.264 859.257C680.796 859.559 684.793 856.373 686.451 853.748C693.588 842.467 700.018 830.744 706.857 819.281C712.919 809.133 712.62 807.215 702.686 801.044ZM-115.23 481.449C-98.7957 477.614 -81.4072 484.927 -70.9048 500.563C-89.8068 502.034 -104.019 495.559 -115.23 481.449ZM136.995 765.038C95.7737 798.33 49.1097 805.752 -0.582971 789.67C-21.6178 782.859 -42.0732 772.955 -61.1735 761.705C-96.7941 740.743 -114.418 708.009 -114.224 666.822C-114.004 619.341 -99.364 575.51 -75.6106 534.89C-63.5039 514.165 -43.5555 505.629 -19.7216 506.065C7.81573 506.563 33.1802 516.126 58.4686 525.663C66.579 528.724 74.4155 532.526 82.3734 535.99C117.796 552.405 153.716 568.268 184.036 593.41C195.201 602.784 204.623 614.055 211.871 626.704C215.925 633.773 216.517 645.644 213.641 653.478C197.401 696.797 173.52 735.492 136.995 765.038ZM551.801 953.054C520.713 983.187 483.917 992.54 442.022 981.247C402.592 970.623 366.797 953.254 339.675 921.898C305.756 882.692 299.742 836.131 309.122 787.246C313.517 764.138 321.249 741.51 329.223 719.298C338.525 693.249 352.521 684.641 380.318 685.12C408.753 685.607 435.512 694.12 462.029 703.249C478.427 708.892 494.483 715.549 510.692 721.74C510.971 721.274 510.41 722.216 510.692 721.74C543.404 735.797 558.02 744.319 582.21 759.725C588.842 763.997 594.939 769.419 600.692 774.929C620.047 793.479 627.154 816.285 618.518 841.584C604.297 883.331 583.912 921.918 551.801 953.054ZM641.205 810.377C649.674 808.744 658.438 809.686 666.367 813.082C674.296 816.477 681.025 822.171 685.688 829.428C667.243 831.269 653.211 824.758 641.205 810.377Z" fill="#564D80"/>
</g>
</svg>
