<svg width="24" height="24" viewBox="0 0 24 24" fill="none" xmlns="http://www.w3.org/2000/svg">
<path d="M19.5815 18.5209C21.0888 16.7701 21.9999 14.4915 21.9999 12C21.9999 9.50853 21.0888 7.22987 19.5815 5.47906L15.3088 9.75178C15.7449 10.3925 15.9999 11.1665 15.9999 12C15.9999 12.8335 15.7449 13.6075 15.3088 14.2482L19.5815 18.5209Z" fill="#7C3AED"/>
<path d="M18.5208 19.5816C16.77 21.0889 14.4914 22 11.9999 22C9.50847 22 7.22981 21.0889 5.479 19.5816L9.75172 15.3089C10.3924 15.745 11.1664 16 11.9999 16C12.8334 16 13.6074 15.745 14.2481 15.3089L18.5208 19.5816Z" fill="#7C3AED"/>
<path d="M4.4184 18.5209L8.69112 14.2482C8.25495 13.6075 8 12.8335 8 12C8 11.1665 8.25495 10.3925 8.69112 9.75178L4.4184 5.47906C2.91114 7.22987 2 9.50853 2 12C2 14.4915 2.91114 16.7701 4.4184 18.5209Z" fill="#7C3AED"/>
<path d="M11.9999 8C11.1664 8 10.3924 8.25495 9.75172 8.69112L5.479 4.4184C7.22981 2.91114 9.50847 2 11.9999 2C14.4914 2 16.77 2.91114 18.5208 4.4184L14.2481 8.69112C13.6074 8.25495 12.8334 8 11.9999 8Z" fill="#7C3AED"/>
</svg>
