<svg width="18" height="19" viewBox="0 0 18 19" fill="none" xmlns="http://www.w3.org/2000/svg">
<path d="M7.14 0C3.19266 0 0 3.19266 0 7.14C0 11.0873 3.19266 14.28 7.14 14.28C8.5493 14.28 9.85359 13.8666 10.9594 13.1644L16.1175 18.3225L17.9025 16.5375L12.81 11.4581C13.7255 10.2572 14.28 8.76914 14.28 7.14C14.28 3.19266 11.0873 0 7.14 0ZM7.14 1.68C10.1637 1.68 12.6 4.11633 12.6 7.14C12.6 10.1637 10.1637 12.6 7.14 12.6C4.11633 12.6 1.68 10.1637 1.68 7.14C1.68 4.11633 4.11633 1.68 7.14 1.68Z" fill="#98A6D4"/>
</svg>
